<svg xmlns="http://www.w3.org/2000/svg" viewBox="0 0 153.1 44.8"><defs><style>.cls-1{fill:#23baff;}</style></defs><title>Asset 3</title><g id="Layer_2"><g id="Layer_1-2"><path class="cls-1" d="M34.55,9H26.1L18.54,44.58H3.86A8.62,8.62,0,0,1,5,44.13a2.46,2.46,0,0,0-.84-1c.64,0,1.57-.13,2.8-.28-.26-.07-.62-.17-1.09-.28s-.83-.2-1.09-.28a2.23,2.23,0,0,0,.84-.11C5.52,42,5.26,42,4.82,42c0,0,.41-.19,1.34-.56-.15-.15-.19-.24-.11-.28A2.47,2.47,0,0,0,4.82,41a17.81,17.81,0,0,0,2.74-.17,2.34,2.34,0,0,0-1.23-.16,8.72,8.72,0,0,0,2-.17L4.82,40l2.63-.5a7,7,0,0,0-1.23-.17A5.63,5.63,0,0,1,5,39.14c.08,0,.84-.22,2.3-.56l-.11-.11s.09-.09.28-.17A6.14,6.14,0,0,1,6.1,38a9.74,9.74,0,0,0,1.29-.34,2.32,2.32,0,0,0-1.23-.17,1,1,0,0,0,.5-.16c0-.19-.22-.28-.78-.28a6.85,6.85,0,0,1-1.46-.56.75.75,0,0,1-.33-.28A.5.5,0,0,0,3.7,36a2.61,2.61,0,0,0,1.06-.17,2.75,2.75,0,0,0-1.18-.33c.23-.08.54-.21,1-.39-.19-.12-.43-.28-.73-.51a47.63,47.63,0,0,0,5.09-.11c-1.3-.11-3-.28-5-.5l1.74-.34a2.38,2.38,0,0,0-1.24-.17H9.13a19.56,19.56,0,0,0-4.31-.33,4.52,4.52,0,0,0,1.45-.34,4.86,4.86,0,0,0-1.62-.17.9.9,0,0,0,.45-.17.91.91,0,0,0-.62-.16A15.15,15.15,0,0,1,7.34,32C9,32,10,32,10.3,31.92l-3.69-.5a26.62,26.62,0,0,0,4.25-.12C10,31.19,8.6,31,6.78,30.69a3.33,3.33,0,0,0,1.12-.56c.59-.08,1.62-.19,3.08-.34a22.26,22.26,0,0,0-3.31-.17q.51-.33.06-.33a5.28,5.28,0,0,0,1.68-.17,5,5,0,0,0-1-.2c-.47-.05-.81-.1-1-.14a1.68,1.68,0,0,0,.9-.16,1,1,0,0,0-.73-.17,1.62,1.62,0,0,0,.84-.34A.54.54,0,0,0,8,27.94a1.68,1.68,0,0,0,.84-.16,1.31,1.31,0,0,1-.62-.42,1.16,1.16,0,0,0-.61-.42,12.15,12.15,0,0,0,2.74-.17,5.39,5.39,0,0,0-1.85-.17,1.28,1.28,0,0,0,.67-.17c-.18-.22-.65-.33-1.4-.33.64,0,1.59-.09,2.86-.14s2.22-.12,2.86-.2a43.38,43.38,0,0,0-5-.34,1.83,1.83,0,0,0,.9-.16,3,3,0,0,1-1.07-.73,3.34,3.34,0,0,0,1.07-.28.7.7,0,0,0-.51-.17.91.91,0,0,0,.56-.17A.6.6,0,0,0,9,23.74a15.8,15.8,0,0,0,2.63-.16,11.2,11.2,0,0,0-2.3-.17,5.76,5.76,0,0,0,1.74-.17c-.08-.11-.49-.17-1.23-.17a1.53,1.53,0,0,1-1-.33,1.74,1.74,0,0,0,.45-.06,2.28,2.28,0,0,1-.28-.22c-.11-.12,0-.25.23-.4-.64-.07-1.59-.2-2.86-.39q6.66,0,8-.05c-2-.08-4.5-.23-7.45-.45L7.22,21a.71.71,0,0,0-.39-.11c3.62.07,6.25,0,7.9-.11q-2.36-.23-8.07-.23a44.22,44.22,0,0,0,6.05-.11,54.57,54.57,0,0,0-5.93-.17c-.86,0-1.29-.09-1.29-.17a4.17,4.17,0,0,1,1.12-.22,10.63,10.63,0,0,1,2.18-.5,3.71,3.71,0,0,1-1.51-.56,7.33,7.33,0,0,0,1.9-.12,4.9,4.9,0,0,0-1.68-.16q5.72,0,6.72-.12c-1.27-.14-3.58-.22-6.94-.22,0,0,.52-.17,1.46-.5-.08-.12-.4-.15-1-.12l2.64-.72a.86.86,0,0,0,.95-.68,15.36,15.36,0,0,0,2.91-.11c-.67-.07-2-.11-3.92-.11l1.12-.39a4.32,4.32,0,0,0-1.23-.11,11,11,0,0,1,.95-.56,1.18,1.18,0,0,0-.36-.17,4.18,4.18,0,0,1-.42-.17,1.64,1.64,0,0,0,.89-.17,1.77,1.77,0,0,0-1-.17L12,14.06l1.74-.17a7.79,7.79,0,0,0-2.86-.28,1.55,1.55,0,0,1,.45-1.07c.11-.11.11-.16,0-.16a4.63,4.63,0,0,0,1.51-.17,11.94,11.94,0,0,0-2.07-.11,16.91,16.91,0,0,1,3.75-.9L12.21,11a1.47,1.47,0,0,1-1-.33c1.49-.12,3.75-.26,6.77-.45q-4-.35-6.61-.34a6.51,6.51,0,0,0,1.91-.17,5.48,5.48,0,0,0-1.85-.16l.73-.51L.56,8.46C.19,8.2,0,8,0,7.84c.64,0,1.55-.13,2.74-.28A8.76,8.76,0,0,0,.11,7.45a10.48,10.48,0,0,1,2.41-.73A9.57,9.57,0,0,0,.28,6.61a4.53,4.53,0,0,0,1.29-.17,5.12,5.12,0,0,1-.95-.56A3,3,0,0,0,1.9,5.77a1.83,1.83,0,0,0-.67-.2A7.4,7.4,0,0,1,.5,5.43,1.07,1.07,0,0,1,1,5.24,3.66,3.66,0,0,0,1.4,5.1l2.46.11a.55.55,0,0,0,.23-.28c0-.15,0-.23-.11-.23A1.91,1.91,0,0,0,5,4.54L4.2,4.31a.79.79,0,0,0,.28-.11,1.08,1.08,0,0,0-.62-.11Q4.53,4,5.66,3.7a1.3,1.3,0,0,0-.84-.17,2.6,2.6,0,0,0,.89-.17L5,3.19,4.31,3a38.32,38.32,0,0,0,4.2-.16c-.89,0-2.26-.15-4.09-.34a10.79,10.79,0,0,0,2.52-.17,15.67,15.67,0,0,1-2-.33,2.53,2.53,0,0,0,1.29-.17,4.93,4.93,0,0,0-1.4-.11A3,3,0,0,1,5.6,1,2.94,2.94,0,0,0,5.24.78.87.87,0,0,1,4.87.5L5.52.36A2.61,2.61,0,0,0,6.16.17C6.08.06,5.82,0,5.38,0H36.46Z"/><path class="cls-1" d="M57.4,35.78Q56.05,42.25,50.18,44a14.18,14.18,0,0,1-4.09.78c-2.09-.18-3.42-.28-4-.28a4.78,4.78,0,0,0,1-.11,28.24,28.24,0,0,0-2.86-.11,1.09,1.09,0,0,0,.62-.11,7,7,0,0,0-1.46-.11A17.41,17.41,0,0,0,41.78,44a15.18,15.18,0,0,0-2.13-.11,11.41,11.41,0,0,0,1.62-.11c-.19,0-1.49-.16-3.92-.38a7.33,7.33,0,0,0,1.85-.11,5.63,5.63,0,0,0-1.4-.11A5.55,5.55,0,0,0,39.26,43l-2.92-.34a5.72,5.72,0,0,0,1.57-.11,8.82,8.82,0,0,1-.95-.22,2.53,2.53,0,0,0,.9-.11c-.42,0-1-.11-1.8-.22.41,0,1.09-.11,2-.22a6.2,6.2,0,0,0-1.85-.11,1,1,0,0,0,.62-.11c-.41,0-1-.11-1.79-.22a21,21,0,0,0,2.18-.11,17.7,17.7,0,0,0-2.3-.11,1.89,1.89,0,0,0,.73-.12.47.47,0,0,0-.33-.11,6.53,6.53,0,0,0,1.56-.17l-.84-.23a2.32,2.32,0,0,0,.9-.06c-.34-.08-.84-.18-1.51-.29a1.22,1.22,0,0,0,.84-.12c-.11,0-.94-.11-2.47-.23q-2-.16-2.07-.57a31.91,31.91,0,0,0,4.48-.12A9.94,9.94,0,0,0,34.38,39a3.66,3.66,0,0,0,.62-.22,1.21,1.21,0,0,0-.67-.1,2.86,2.86,0,0,0,.73-.09,1.08,1.08,0,0,0-.68-.09c1.8,0,3.18,0,4.15-.11a13,13,0,0,0-2.69-.12,7.5,7.5,0,0,0,1.34-.11,25,25,0,0,0-2.85-.11,7.76,7.76,0,0,0,.89-.28,5.79,5.79,0,0,1-.78-.34,2.54,2.54,0,0,0,.7-.14c.32-.09.59-.15.81-.19a5.49,5.49,0,0,0-1.57-.06l.12-.45a7.15,7.15,0,0,0,1.28-.16A5.74,5.74,0,0,1,34.61,36a3,3,0,0,0,1.17-.11,1.27,1.27,0,0,0-.5-.06,8.6,8.6,0,0,0,1.57-.11,14.89,14.89,0,0,0-2-.11,8.71,8.71,0,0,0,1.79-.17l-.84-.11c-.37,0-.65-.07-.84-.11a1.29,1.29,0,0,0,.84-.11A3,3,0,0,0,35,35q.06-.39,0-.39a12,12,0,0,0,1.79-.11c-.11-.15-.35-.23-.73-.23h-1a1.25,1.25,0,0,0,.34-.11.64.64,0,0,0-.45-.22c.71,0,1.94-.08,3.7-.23-.86-.07-2.08-.22-3.64-.45.56-.22.69-.37.39-.44a6.93,6.93,0,0,0,1.34-.28,15.1,15.1,0,0,0-3.53-.34,2.08,2.08,0,0,0,.73-.11l-.78-.34c.37,0,1-.13,1.79-.28a3.36,3.36,0,0,0-1.23-.17.91.91,0,0,1,.17-.39,3.1,3.1,0,0,1-.68-.22,2.78,2.78,0,0,0,.9-.11c-.08-.08-.24-.1-.5-.06-.08-.07,0-.19.16-.34l-.33-.33a5.68,5.68,0,0,0,1.4-.23l0-.11a2.1,2.1,0,0,1-.56-.11c.12-.11-.05-.17-.5-.17a1.33,1.33,0,0,1,.78-.39,5.38,5.38,0,0,0,.9-.11,3.31,3.31,0,0,0-1.4-.06c-.08,0,0-.09.17-.17,0,0,.26-.07.89-.11s.94-.07.9-.11a4.12,4.12,0,0,0,.9-.17,1.92,1.92,0,0,1-.51-.39,1.55,1.55,0,0,0,.73-.06,2,2,0,0,0-.84-.11l.28-1.12A10.83,10.83,0,0,0,38,26.15a1.92,1.92,0,0,0-.45-.12,1.6,1.6,0,0,1-.45-.11,5.55,5.55,0,0,0,1.57-.11,9.05,9.05,0,0,0-1.74-.12,1,1,0,0,0,.51-.11c-.08-.12-.26-.15-.56-.12a26.92,26.92,0,0,0,2.91-.11,26.73,26.73,0,0,0-3-.11c.37,0,.91-.14,1.62-.29a5.78,5.78,0,0,0-1.51-.06c.37-.07.95-.17,1.73-.28a3,3,0,0,0-1.23-.11.75.75,0,0,0,.45-.12,1.4,1.4,0,0,0-.73-.11c.3,0,.75-.12,1.35-.23-.15,0-.92-.1-2.3-.17s-2.2-.12-2.46-.12c1.23,0,2.52-.05,3.86-.17a.5.5,0,0,0-.34-.11c.26,0,.41-.09.45-.29h4.71c-1-.07-2.62-.11-4.82-.11A17.08,17.08,0,0,0,40.38,23a5.29,5.29,0,0,0-1.46-.11,1.67,1.67,0,0,1-1.29-.39,3.11,3.11,0,0,0,1.18-.12,8.07,8.07,0,0,0-2.63-.61c-1.54-.19-2.43-.28-2.69-.28h4.2a10.15,10.15,0,0,0,1.06-.23c-.22,0-.58-.11-1.06-.22a5.52,5.52,0,0,0,1.12-.11,3.19,3.19,0,0,0-1.12-.11A21.85,21.85,0,0,1,40,20.27a18.26,18.26,0,0,0,2.35-.05c-.93-.08-2.29-.12-4.09-.12A1.9,1.9,0,0,0,39,20a3.24,3.24,0,0,0-1-.11,2.24,2.24,0,0,0,.62-.17,3.16,3.16,0,0,1-.62-.33L39.65,19c-.34-.07-.84-.2-1.51-.39l.78-.17a1.4,1.4,0,0,0-.73-.11,9.83,9.83,0,0,1,1-.11c.43,0,.76-.08,1-.12a23.33,23.33,0,0,0-4-.22l.34-.28q0-.16-.51-.39c.45,0,1.1-.13,2-.28a4.8,4.8,0,0,0-1.51-.17.65.65,0,0,0-.22-.39c.59,0,1.54-.11,2.85-.23a14,14,0,0,0-2.52-.11A3.24,3.24,0,0,0,37.69,16a3.68,3.68,0,0,0-1.4-.11c.22,0,.61-.13,1.17-.28,0-.11-.24-.17-.61-.17q5.43,0,7.33-.11c-2.39,0-4.92-.11-7.61-.23A7.06,7.06,0,0,0,37.91,15a3.81,3.81,0,0,0-1.4-.11c.37,0,1-.11,1.74-.22-.38,0-.86-.12-1.46-.23.11-.15.06-.22-.17-.22.41,0,1-.13,1.8-.28-.38,0-.94-.11-1.68-.23H49.22L44,38.42a1.55,1.55,0,0,0,.19.89.89.89,0,0,0,.87.51,18.57,18.57,0,0,0,2.41-.23,4.68,4.68,0,0,0-1.06-.28c1.68,0,2.93,0,3.75-.11-.75-.07-1.92-.11-3.53-.11l.95-.06c.82-.07,2.13-.13,3.92-.17-.15,0-1-.07-2.4-.11a23.24,23.24,0,0,1-2.41-.11,1.61,1.61,0,0,0,.89-.34c0-.07-.18-.11-.44-.11a.65.65,0,0,0,.5-.17.73.73,0,0,0-.5-.22,13.16,13.16,0,0,0,1.34-.11,5.7,5.7,0,0,0-1.34-.11,3.54,3.54,0,0,0,.67-.23.7.7,0,0,0-.45-.11.68.68,0,0,0,.34-.11.31.31,0,0,0-.23-.11A.92.92,0,0,0,48,36.9a2.45,2.45,0,0,1-.61-.28s.11-.13.33-.28a.55.55,0,0,0-.39-.11,6.54,6.54,0,0,0,1-.28v-.11h-.56l-.23-.06a15.62,15.62,0,0,1,2.41-.5l-2.24-.34a15.53,15.53,0,0,0,1.74-.22c-.41,0-1-.11-1.63-.22a6.23,6.23,0,0,0,1.35-.23,3.19,3.19,0,0,0-1.4-.05c.15-.3.52-.47,1.12-.51l1.85-.11a15.1,15.1,0,0,0-2.69-.22,6.12,6.12,0,0,0,1.17-.12,3.57,3.57,0,0,1-1.17-.5.93.93,0,0,0,.56-.11c0-.15-.06-.23-.28-.23a.86.86,0,0,0,.5-.11,3,3,0,0,1-.45-.39l1.74-.17a8.64,8.64,0,0,0-1.68-.11c.22-.15.2-.22-.06-.22a.7.7,0,0,0,.4-.12c-.15-.14-.23-.24-.23-.28A17.73,17.73,0,0,0,51.13,31a20.09,20.09,0,0,0-2.58-.23c1-.11,2.39-.22,4.15-.33a30.82,30.82,0,0,0-3.87-.11,9.46,9.46,0,0,0,1.91-.17c-.49,0-1.18-.12-2.08-.23a1.1,1.1,0,0,0,.56-.11.38.38,0,0,0-.28-.11,3.87,3.87,0,0,0,1.35-.12c-.34,0-.81-.11-1.4-.22.74,0,2-.07,3.92-.23l-2-.11c-.9,0-1.57-.07-2-.11.37,0,.88-.11,1.51-.22a3.86,3.86,0,0,0-1.26-.06l.12-.56a8.71,8.71,0,0,0,2.26.06A14.76,14.76,0,0,0,49.22,28l.1-.51a10.26,10.26,0,0,0,1.86-.11c-.41,0-1-.11-1.79-.22A.78.78,0,0,0,50,27a.43.43,0,0,0-.39-.17,6.29,6.29,0,0,0,1.74-.11c-.42,0-1-.11-1.91-.23a3.08,3.08,0,0,0,1-.22c-.22,0-.54-.11-.95-.22a2.57,2.57,0,0,0,.78-.23c-.15-.15-.19-.22-.11-.22-.08-.11-.58-.17-1.51-.17.26,0,.61-.11,1.06-.22L49,24.92a2.9,2.9,0,0,0,1.51-.28,6.29,6.29,0,0,0-1.68-.17c.41,0,1.05,0,1.91-.11A9.39,9.39,0,0,0,49,24.25c.93,0,2.16,0,3.7-.06-.27,0-.86-.08-1.8-.14s-1.53-.1-1.79-.14a10.29,10.29,0,0,0,1.63-.22,12.14,12.14,0,0,0-1.57-.06c.18-.34.17-.5-.06-.5a1.22,1.22,0,0,1,.67-.17.9.9,0,0,1,.28-.28,1.29,1.29,0,0,0-.84-.11,3.14,3.14,0,0,1,.68-.23c.41-.11.59-.18.56-.22l2.91-.22c-.71,0-1.7-.06-3-.17,0,0,.17-.17.5-.39a.55.55,0,0,0-.28-.06,2.3,2.3,0,0,1,.23-.28c.07-.11,0-.19-.11-.22a5.52,5.52,0,0,0,1.17-.12,6.29,6.29,0,0,1-1.23-.28,2.9,2.9,0,0,0,1-.05,2,2,0,0,0-.84-.11.47.47,0,0,0-.06-.39c.3,0,.75-.12,1.35-.23A5.52,5.52,0,0,0,51,19.49a.18.18,0,0,0,.16-.14c0-.09.15-.16.34-.2A.79.79,0,0,0,51,19a.17.17,0,0,0,.16-.11c0-.11,0-.19,0-.22a10.7,10.7,0,0,1,1.35-.34,4.07,4.07,0,0,0-.67-.11c-.34,0-.58-.08-.73-.11l2.13-.45a10.2,10.2,0,0,0-1.85-.11,2.91,2.91,0,0,0,.61-.12,6.86,6.86,0,0,1-.67-.39,1.29,1.29,0,0,0,.73-.11.66.66,0,0,0-.49-.17l.11-.5,1.61-.23A2.57,2.57,0,0,0,52.25,16c.26,0,.43,0,.5-.11a1.4,1.4,0,0,0-.84-.11,24.64,24.64,0,0,0,2.75-.12,27.6,27.6,0,0,0-3-.11,5.05,5.05,0,0,1,.67-.35.41.41,0,0,0-.28-.11,19.76,19.76,0,0,0,2.3-.12c-1.31-.26-2-.4-2.19-.4a2.45,2.45,0,0,0,1-.11,4,4,0,0,0-1.12-.12,2.46,2.46,0,0,0,1-.11,3.09,3.09,0,0,0-.79-.06,2.25,2.25,0,0,0-.22-.46h10Z"/><path class="cls-1" d="M89.65,21.84c-.14.64-.29,1.27-.44,1.9a8.84,8.84,0,0,1-1.38,2.64q-1,1.34-4.67,1.79l.34.28q3.85.84,3.86,3.64a4.23,4.23,0,0,1-.06.73L84.78,44.58h-8c0-.19-.37-.28-1-.28a1.17,1.17,0,0,0,.61-.11v-.12c0-.07-.24-.11-.61-.11a2.54,2.54,0,0,0,.84-.11,6.21,6.21,0,0,1-1-.28,1.26,1.26,0,0,0,.62-.11c0-.11-.14-.17-.55-.17l.15-.68a4.8,4.8,0,0,0,1.3,0,2.91,2.91,0,0,0-1.12-.11,8.91,8.91,0,0,0,1.62-.11,9.84,9.84,0,0,0-1.73-.1q.84-.12,2.4-.27c-.18,0-.84-.11-2-.22l.06-.27c-.6-.07-.84-.14-.73-.22-.22-.21-.33-.29-.33-.21H80a19.78,19.78,0,0,0-2.38-.23c-1.25-.07-2-.13-2.38-.16a16,16,0,0,0,2.19-.06,5.19,5.19,0,0,0-1.07-.17c-.52-.07-1.06-.13-1.62-.17v0a14.83,14.83,0,0,1,1.79-.06,17.12,17.12,0,0,0,1.74,0,13.41,13.41,0,0,0-3.36-.34c.71,0,1.53-.09,2.46-.17-.15-.22-.86-.3-2.13-.22h2.91c-.33,0-.85-.11-1.56-.23A6,6,0,0,0,78,38.92c-.22,0-.6-.13-1.12-.28a1,1,0,0,0,.79-.11c-.08-.08-.27-.09-.56-.06a3.84,3.84,0,0,0,1.06-.17c0-.11-.47-.16-1.29-.16a3.42,3.42,0,0,1,1.07-.4,1.48,1.48,0,0,0-.84-.11,2.72,2.72,0,0,0,.89-.11.73.73,0,0,0-.62-.22,6.66,6.66,0,0,0,1.46-.12c-.33-.07-.86-.16-1.57-.28a.75.75,0,0,0,.45-.11s-.13-.15-.5-.33a2.77,2.77,0,0,1,1.51-.23,4.16,4.16,0,0,0,1.06-.11,11.93,11.93,0,0,0-2-.11c.11-.08.31-.21.61-.39a1.67,1.67,0,0,0-.67-.12,7.82,7.82,0,0,0,1.46-.11,3.55,3.55,0,0,0-1.23-.22c-.08,0,0,0,.16-.11-.07-.08-.26-.12-.56-.12a10.74,10.74,0,0,0,1.35-.11,2.12,2.12,0,0,0-.73-.11,5.7,5.7,0,0,0,1.06-.11,12.1,12.1,0,0,1-1.4-.28A4.81,4.81,0,0,0,79,34.1,2.91,2.91,0,0,0,77.84,34a2.75,2.75,0,0,0,1.06-.11,1.35,1.35,0,0,0-.73-.11c.3-.19.4-.36.29-.51q-.51,0,1.62-.33a6.69,6.69,0,0,0-1.68-.06.48.48,0,0,1,.17-.28,2.46,2.46,0,0,0-.67-.33,6.16,6.16,0,0,0,1.51-.12,14.23,14.23,0,0,1-1.4-.39,1.11,1.11,0,0,0,.61-.11l-.56-.11s.06-.08.17-.11c-.22-.23-.35-.3-.39-.23a8.82,8.82,0,0,0,1-.22,1.52,1.52,0,0,0-.89-.11,21.87,21.87,0,0,0,2.68-.12A5,5,0,0,0,79,30.63a35.77,35.77,0,0,0,4.08-.17H75.26l-3,14.12H64.73l.06-.17a14.25,14.25,0,0,0-2.58-.28c.3-.08,1.37-.21,3.2-.39a8.91,8.91,0,0,0-2.19-.12,2.19,2.19,0,0,0,.62-.16c-.11,0-.57-.05-1.37-.14a13.11,13.11,0,0,1-1.37-.2h1.34L65,42.78a13.91,13.91,0,0,0-2.3-.22,6.46,6.46,0,0,0,1.06-.11,1.79,1.79,0,0,0-.89-.17.62.62,0,0,0,.33-.11c-.07-.08-.24-.11-.5-.11a28.72,28.72,0,0,0,3-.12,7.48,7.48,0,0,0-2-.11c.59,0,1.49-.11,2.69-.22a17.92,17.92,0,0,0-2.92-.11,1.11,1.11,0,0,0,.51-.23,1.13,1.13,0,0,0-.73-.11,6.24,6.24,0,0,0,1.34-.11,5.58,5.58,0,0,0-1.4-.11,2.83,2.83,0,0,0,1.07-.12l1.06-.28c-.48,0-1.21-.11-2.18-.22.56,0,1.42-.11,2.57-.22a18.69,18.69,0,0,1-2.57-.4q3.52.06,6.44-.11l-4.48-.11c-1.09-.07-1.72-.11-1.91-.11.41,0,1-.11,1.8-.23a8.49,8.49,0,0,1-1.63-.33c.86,0,1.64,0,2.35-.11a3.63,3.63,0,0,0-1.45-.12,25.6,25.6,0,0,0,2.8-.11l-1.8-.14c-.82,0-1.41-.1-1.79-.14a6.26,6.26,0,0,0,1.63-.11,1.79,1.79,0,0,0-.79-.22,11.09,11.09,0,0,0,2.19-.28,2,2,0,0,0-1.24-.34L64,37.3a12.6,12.6,0,0,0,1.79-.12,15.93,15.93,0,0,1-1.57-.28c.38,0,.94-.11,1.68-.22a6.16,6.16,0,0,1-.83-.22c.33,0,.54,0,.61-.12-.26,0-.67-.11-1.23-.22a10.2,10.2,0,0,0,1.79-.22l-1.09-.2-1-.2A7.24,7.24,0,0,0,66,35.39a2.73,2.73,0,0,0-1.12-.11,15.41,15.41,0,0,0,2.07-.11c-.6,0-1.46-.11-2.58-.23a4.62,4.62,0,0,0,1.46-.11,2.62,2.62,0,0,0-1.07-.11,17.06,17.06,0,0,0,2.36-.22c-1.24-.08-2.69-.21-4.37-.4l4.65-.44a10,10,0,0,0-2.69-.06,4.66,4.66,0,0,1-2.41-.28c1.23-.07,2.69-.2,4.37-.39a25.38,25.38,0,0,0-3.75-.11,48.94,48.94,0,0,0,5.32-.23c-.64-.07-2.5-.11-5.6-.11.26-.15.26-.22,0-.22a10.6,10.6,0,0,0,3.24-.34,14,14,0,0,0-3.13-.17,40,40,0,0,0,4.82-.22,5.13,5.13,0,0,0-1.41-.17c-.07,0,0-.09.17-.17a.91.91,0,0,0-.56-.11l2.07-.14,2.08-.14H66.3q.28,0-1.17-.45a16.69,16.69,0,0,0,1.68-.11,2.78,2.78,0,0,0-.9-.11c.6,0,1.49-.11,2.69-.23a15.94,15.94,0,0,0-2.41-.22,6,6,0,0,0,1.62-.11,4.51,4.51,0,0,0-1.56-.11,1.11,1.11,0,0,0,.61-.12,5.8,5.8,0,0,0-1.34-.11A6.29,6.29,0,0,0,66.75,29c0-.07-.26-.09-.67-.05a4.78,4.78,0,0,1,.78-.28c-.26,0-.63-.12-1.12-.23.08,0,.92-.15,2.52-.33a12.73,12.73,0,0,0-2.57-.12,5.64,5.64,0,0,0,.78-.28.48.48,0,0,0-.34-.11,16.7,16.7,0,0,0,2.3-.11c-.45,0-1.06-.11-1.85-.22.3,0,.49,0,.56-.12A3,3,0,0,0,66,27a6.85,6.85,0,0,0,1.46-.11,2.46,2.46,0,0,0-1-.22.65.65,0,0,0,.39-.12c-.18-.07-.46-.16-.84-.28a16,16,0,0,0,2.36-.11c-.23,0-.58-.07-1.07-.11s-.84-.07-1.06-.11a24.93,24.93,0,0,0,2.52-.11,15.13,15.13,0,0,0-2.24-.12,24.84,24.84,0,0,0,2.74-.22,6.48,6.48,0,0,0-1.9-.11c1.49,0,2.63,0,3.41-.11A30.72,30.72,0,0,0,67.2,25a22.07,22.07,0,0,0,3.19-.12c-.63-.07-1.64-.11-3-.11a3.19,3.19,0,0,0,1.17-.11A3.65,3.65,0,0,0,67,24.42c-.45,0-.9,0-1.34-.06-1,0-1.42-.09-1.23-.17a10.37,10.37,0,0,0-1.74-.11q4.88.12,5.82,0c-1.64-.07-3.36-.19-5.15-.34a3.17,3.17,0,0,0,.78-.22,6.45,6.45,0,0,0-1.45-.11A6.19,6.19,0,0,0,64,23.07,2.81,2.81,0,0,0,62.83,23c1.9-.11,4.22-.3,6.94-.56a10.84,10.84,0,0,1-2.85-.34c1.64,0,2.91,0,3.81-.11l-1.57-.11c-.71,0-1.23-.07-1.57-.11.56,0,1.49-.08,2.8-.23a16.78,16.78,0,0,0-2.29-.11,1.85,1.85,0,0,0,.72-.11q-2.75-.06-6.1-.22l5-.06c0-.07.11-.19.34-.34a1,1,0,0,0-.56-.11,13.9,13.9,0,0,0,2.07-.11,17,17,0,0,0-2.3-.11l1.34-.39a4.23,4.23,0,0,0-1.28-.06c.52-.07,1.27-.17,2.24-.28a3.33,3.33,0,0,0-1.4-.11,2.29,2.29,0,0,0,1-.11,7.8,7.8,0,0,0-1.56-.12,3.06,3.06,0,0,0,.89-.11,1.81,1.81,0,0,0-1-.11c.7-.11,1.56-.22,2.57-.34l-1.17-.28c-.53-.11-.92-.18-1.18-.22a3.26,3.26,0,0,0,1.18-.11.76.76,0,0,0-.51-.11.65.65,0,0,0,.39-.12.55.55,0,0,0-.39-.11l7.9-.17h-8L71,17.42c-2.32-.3-3.47-.4-3.47-.28a1.84,1.84,0,0,0,.56.11,13.11,13.11,0,0,0,2.52-.11A20.91,20.91,0,0,0,68,17a7,7,0,0,0,1-.11,8.55,8.55,0,0,1,1.06-.11,3,3,0,0,0-1.17-.11A15.41,15.41,0,0,0,71,16.58a12.48,12.48,0,0,0-2-.12,5.12,5.12,0,0,0,1.07-.11,7.5,7.5,0,0,0-1.52-.11c2.09,0,3.68,0,4.76-.11-1.9-.19-3.39-.28-4.48-.28a1.37,1.37,0,0,0,.79-.11l-.34-.62a5.29,5.29,0,0,0,2,.06c-.53,0-1.33-.12-2.41-.23a12.75,12.75,0,0,0,1.79-.11,10.15,10.15,0,0,0-1.73-.11,4.53,4.53,0,0,0,1.17-.17c-.19,0-1.29-.06-3.3-.08s-3.12-.05-3.31-.09c.26,0,1.25-.07,3-.22a12.81,12.81,0,0,0,3-.39c-.08-.12-.26-.15-.56-.12.37,0,.62-.09.73-.28.67,0,1.92,0,3.75-.05,1.6-.08,2.46-.11,2.58-.11,5.33,0,8.77.22,10.3.67a4.71,4.71,0,0,1,3.75,5A14.94,14.94,0,0,1,89.65,21.84Zm-6.44,6.33c-.89,0-2.23-.06-4-.17a4.62,4.62,0,0,1,1.68-.22c-.52,0-.86,0-1-.23A19.94,19.94,0,0,1,82,27.33a16.4,16.4,0,0,1-2-.11V27.1a1.1,1.1,0,0,1,.56-.11c-.26,0-.43,0-.51-.17a4.22,4.22,0,0,1-1.45-.61l-.4,0c-.14,0-.2-.08-.16-.2a15.93,15.93,0,0,1,4.14-.16,20.1,20.1,0,0,1-4.2-.34,19,19,0,0,1,3.53-.06c-.23,0-.23,0,0-.11-.93-.15-1.94-.35-3-.61a16.94,16.94,0,0,1,3.75.05,1.92,1.92,0,0,1-1-.22,2.09,2.09,0,0,1-.56-.11,1.67,1.67,0,0,1,.29-.34h.56a1.17,1.17,0,0,1-.62-.17l.17-.67a.83.83,0,0,1,.45-.11,2.38,2.38,0,0,1-.73-.11.94.94,0,0,0,.33-.23h1.29a4.43,4.43,0,0,1-1.34-.28,3.91,3.91,0,0,1,1.34-.11,4,4,0,0,1-1.74-.22c.15-.12.4-.28.73-.51H81c-.41,0-.63,0-.67-.22H78.12l-1.46,6.72Z"/><path class="cls-1" d="M121.63,44.58H113a11.08,11.08,0,0,0,1.34-.12l-.64-.14a4,4,0,0,1-.59-.14,10.07,10.07,0,0,0,1.62-.22,3.35,3.35,0,0,0-1.29-.11,1.37,1.37,0,0,0,.79-.11,3.65,3.65,0,0,0-1.18-.12l1-.11a7.12,7.12,0,0,0,1-.11,6.87,6.87,0,0,0-1.68-.22,4.55,4.55,0,0,0,1.18-.17c-.23,0-.56-.11-1-.23.26,0,.67-.11,1.23-.22a3.65,3.65,0,0,0-1.4-.11.86.86,0,0,0,.51-.56.62.62,0,0,0-.28-.62,6.75,6.75,0,0,0,1.79-.11c-.19,0-.48-.07-.87-.11l-.87-.11c.41,0,1-.08,1.88-.12s1.46-.07,1.87-.11c0,0-.85-.09-2.46-.17a2.09,2.09,0,0,1-1.12-.22c.6,0,1.49-.11,2.69-.22-.41,0-1-.08-1.63-.12a.91.91,0,0,1-.67-.28,19.17,19.17,0,0,0,2.07-.16c-.48-.08-1.17-.21-2.07-.4a3.22,3.22,0,0,0,1.18-.11.93.93,0,0,0-.56-.11,11.33,11.33,0,0,0,1.79-.11l-1.85-.28.23-.06a1.83,1.83,0,0,0-.79-.11l2.69-.34a9.68,9.68,0,0,0-2.3-.11,2.91,2.91,0,0,0,1-.28,5.6,5.6,0,0,1-1.12-.34,24.55,24.55,0,0,0,2.8-.11,18.42,18.42,0,0,0-2.58-.23,1.05,1.05,0,0,0,.62-.12c-.08-.11-.32-.15-.73-.11l1.85-.4a10.37,10.37,0,0,0-1.74-.11c.45,0,1.08,0,1.9-.11-1.08-.23-1.64-.34-1.68-.34a3.87,3.87,0,0,0,1.35-.12c-.23,0-.6-.11-1.12-.22-.08,0-.11-.08-.11-.12s.14-.08.42-.14a2.25,2.25,0,0,0,.53-.14,2.79,2.79,0,0,0-1-.06l1.4-.51a2.73,2.73,0,0,0-1.12-.11,8.19,8.19,0,0,0,1.46-.11,1.92,1.92,0,0,0-1.12-.23,3,3,0,0,0,.89-.11,4.87,4.87,0,0,0-1.29-.12c.38-.07.94-.17,1.68-.28a2.23,2.23,0,0,0-.84-.11,4.7,4.7,0,0,0,1.18-.12c-.26,0-.62-.09-1.06-.17.15,0,.22-.09.22-.17s-.1-.19-.31-.25a.79.79,0,0,0-.47,0,3.22,3.22,0,0,0,1.06-.06c-.49-.15-.86-.28-1.12-.39a26.73,26.73,0,0,0,3.08-.12,23.66,23.66,0,0,0-2.74-.11,5.43,5.43,0,0,0,1.51-.11,8.64,8.64,0,0,0-1.74-.12c.34,0,.9-.11,1.68-.22-.33,0-.86-.14-1.57-.29a6.26,6.26,0,0,0,1.63-.11,2,2,0,0,1-1.18-.28,1.08,1.08,0,0,1-.22-.57c.52,0,1.31,0,2.35-.06-1.12-.22-1.74-.34-1.85-.34a10.48,10.48,0,0,1,1.4-.4,3.72,3.72,0,0,0-1.29-.22,1.09,1.09,0,0,0,.62-.11,7.37,7.37,0,0,1-.78-.4h5.43s-1.83-.06-5.38-.06q.17-.33.84-.42c.45-.05.88-.12,1.29-.19l-1.74-.23c.53,0,1.35-.11,2.47-.22a10.35,10.35,0,0,0-2.35-.11c.63,0,1.62-.13,3-.28q-.49-.06-1.56-.12c-.71,0-1.24-.07-1.57-.11a11.77,11.77,0,0,0,2.35-.11,7.56,7.56,0,0,1-2.41-.34c.45,0,1.1-.13,2-.28a1.1,1.1,0,0,0-.81-.19c-.39,0-.61-.1-.64-.37a1.19,1.19,0,0,0-.23-.44,16.55,16.55,0,0,1,2-.34,12.19,12.19,0,0,0-1.68-.28,3.52,3.52,0,0,0,0-.95L109.2,44.58l-5.94-.17,2.13-.34a11.57,11.57,0,0,0-2-.22,3.22,3.22,0,0,0,1.18-.11,6.11,6.11,0,0,0-1.51-.12,2.58,2.58,0,0,0,1.29-.22,4.7,4.7,0,0,0,1.34-.11L103,42.9a2.27,2.27,0,0,0,1.07-.12,4.56,4.56,0,0,1-.59-.14c-.21,0-.31-.25-.31-.58.15,0,.41-.1.78-.17a1.39,1.39,0,0,0-.72-.17c2,0,3.64,0,4.87-.11a43.8,43.8,0,0,0-5-.11,3.65,3.65,0,0,0,1-.23.57.57,0,0,0-.22-.22c-.12-.08-.18-.13-.18-.17s0-.07.15-.11.29-.09.58-.17l-1.12-.28a6.05,6.05,0,0,0,1.63-.11,8.55,8.55,0,0,0-1.63-.11,6.48,6.48,0,0,0,1.79-.12,11.09,11.09,0,0,0-1.84-.11,7,7,0,0,0,1.79-.11,1.55,1.55,0,0,0-.9-.11,2.69,2.69,0,0,0,.79-.11,3.14,3.14,0,0,0-1.07-.12c2.2,0,3.85,0,4.93-.11-1.49,0-2.8-.09-3.92-.17-.93-.07-1.47-.11-1.62-.11a13.69,13.69,0,0,0,2.68-.22,12.59,12.59,0,0,0-2.46-.11,11,11,0,0,0,2.24-.12c-.46,0-1.13-.11-2-.22a5.28,5.28,0,0,0,1.52-.11l-1.68-.34a5.53,5.53,0,0,0,1.34-.17c-.07,0-.6-.14-1.57-.33a11.46,11.46,0,0,0,2.35-.11,13.94,13.94,0,0,0-2.12-.12,4.08,4.08,0,0,0,1.34-.11c-.3-.07-.78-.2-1.46-.39.27,0,.75-.15,1.46-.34a4.33,4.33,0,0,1-.9-.28c0-.14-.28-.24-.72-.28l2.4-.33a9.17,9.17,0,0,0-2.18-.11,6.22,6.22,0,0,0,1.18-.12,9.44,9.44,0,0,0-1.35-.39,6.18,6.18,0,0,0,1.18-.22,1.85,1.85,0,0,0-1-.11,4.42,4.42,0,0,0,1.51-.17l1.07-.17a6.06,6.06,0,0,0-1.74-.11.54.54,0,0,0,.62-.17,1,1,0,0,0,.78-.17,14.27,14.27,0,0,1-2-.33c.19,0,.28-.08.28-.12s-.07-.07-.22-.11a.54.54,0,0,1-.34-.22,14.59,14.59,0,0,0,2.19-.06,11.07,11.07,0,0,0-1.91-.11,2.24,2.24,0,0,0,.62-.17,2.68,2.68,0,0,0-.62-.33c.23,0,.59-.08,1.1-.12s.88-.07,1.14-.11c-.51,0-1.25-.11-2.24-.22a2.38,2.38,0,0,0,.84-.11l-.49-.17c0-.11-.08-.17-.35-.17a3.48,3.48,0,0,0,1-.17,2.4,2.4,0,0,1-1.12-.33c.11,0,.91-.15,2.4-.34a9,9,0,0,1-2.29-.22.17.17,0,0,0-.11-.06s.12-.1.36-.2a3.82,3.82,0,0,0,.64-.3,1.7,1.7,0,0,0-.84-.17,20.7,20.7,0,0,0,2.36-.11,17.26,17.26,0,0,0-2.36-.12c.1,0,.26,0,.51-.11-.26-.22-.37-.37-.34-.45a5.8,5.8,0,0,0,.9-.28,4.73,4.73,0,0,0-1.29-.05c.6-.15,1.76-.36,3.47-.62-.67,0-1.81-.17-3.41-.39a8.76,8.76,0,0,0,1.79-.06,3,3,0,0,0-.81-.16,8.09,8.09,0,0,1-.82-.12,5.1,5.1,0,0,0,1.52-.11c-.39-.07-.89-.18-1.52-.33a1,1,0,0,0,.62-.12c-.06-.11-.27-.14-.62-.11.43,0,1.1-.11,2-.22a5.28,5.28,0,0,1-2-.51c.23,0,.6-.11,1.12-.22a4.77,4.77,0,0,1-.78-.22,13.77,13.77,0,0,0,2.18-.12L104.55,25c-.67-.05-1-.34-1-.86L99.23,44.58H90.49A8.68,8.68,0,0,0,92,44.4a13.64,13.64,0,0,1-1.4-.23,10.27,10.27,0,0,0,2.57-.34c-.48,0-1.14-.08-2-.12,0-.23-.2-.34-.61-.34a3.34,3.34,0,0,0,1.17-1c.15-.07.23-.13.23-.17s-.12-.08-.37-.12a1.72,1.72,0,0,1-.59-.17,3.79,3.79,0,0,0,1.35-.11A3,3,0,0,0,91,41.7c.33-.08.88-.17,1.62-.29a4,4,0,0,0-1.45-.11l1.68-.18L92.12,41c0-.15-.28-.34-.73-.57h4.26c0-.15-1.11-.23-3.42-.23-.3,0-.58-.15-.84-.56.41,0,1-.06,1.88-.08s1.44,0,1.82-.09a14.86,14.86,0,0,0-2.58-.11c.52,0,1.76-.09,3.7-.28-.08,0-1.63-.05-4.65-.05a10.22,10.22,0,0,1,2.74-.51c-1.83-.18-3.94-.43-6.33-.73,1.72,0,3.64,0,5.77-.11a1.36,1.36,0,0,0-.87-.22c-.39,0-.64-.08-.75-.23a2.41,2.41,0,0,1,1.4-.28h1.57a2.71,2.71,0,0,0,.56,0,20.68,20.68,0,0,0-3.2-.11,2.68,2.68,0,0,0,1.29-.4A6.79,6.79,0,0,1,92.29,36a2,2,0,0,1,1.23-.34,5.27,5.27,0,0,0,1.4-.11c-.6,0-1.46-.11-2.58-.22a5.42,5.42,0,0,0,1.51-.28.74.74,0,0,0-.56-.23,2.23,2.23,0,0,1-.78,0c.26,0,.69-.11,1.29-.22l-3.31-.39a17.65,17.65,0,0,0,2.75-.34,31.24,31.24,0,0,0,3.36-.11,29.88,29.88,0,0,0-3.19-.11,1.11,1.11,0,0,0,.61-.12,2.91,2.91,0,0,1-1-.33,24.42,24.42,0,0,0,2.8-.11,7.25,7.25,0,0,0-3-.56c.71-.08,1.7-.17,3-.28q-.39-.06-2.58-.12c-1.45,0-2.33-.07-2.63-.11a17.89,17.89,0,0,0,4.15-.11,1.4,1.4,0,0,0-.84-.11,2,2,0,0,0,.72-.11,5.48,5.48,0,0,0-1.34-.12,10.71,10.71,0,0,0,1.85-.11l-5.66-.61c0-.15.7-.33,2-.54s2-.38,2-.53c.22,0,.58-.11,1.06-.22a2.13,2.13,0,0,0-.78-.23,2.7,2.7,0,0,0,1-.11A9.2,9.2,0,0,1,93.69,29a3.74,3.74,0,0,0,1.51-.34,5.67,5.67,0,0,0-1.46-.11s.15,0,.34,0l.39,0c.07,0,0-.06-.08-.17s-.14-.43,0-.95c0-.11.45-.17,1.23-.17a4.39,4.39,0,0,0,.67-.11l-6.16-.39c1.79,0,3.79-.11,6-.23a3.07,3.07,0,0,0-1.17-.11,1,1,0,0,0,.61-.17c0-.07-.22-.09-.56-.05a15,15,0,0,0,2-.11c-.52,0-1.28-.13-2.29-.28,0-.12.26-.26.67-.45a3.89,3.89,0,0,1-.84-.28A2.71,2.71,0,0,0,95.53,25a3.78,3.78,0,0,1-.78-.28,5.56,5.56,0,0,1,1.06-.33,2.3,2.3,0,0,0-1-.12A3.76,3.76,0,0,0,97.05,24l-1.63-.28a.87.87,0,0,1,.28-.11,1.88,1.88,0,0,1-.73-.34q-3.24-.22-4.08-.39h2.68c3.36.11,5.27.17,5.72.17-.83-.08-2.08-.12-3.76-.12a6.05,6.05,0,0,0,1.63-.11c-.49,0-1.14-.11-2-.22a4,4,0,0,0,1-.11c-.23,0-.54-.12-1-.23A5.63,5.63,0,0,0,96,22a2.12,2.12,0,0,0-.73-.11,2.3,2.3,0,0,0,1-.22,1.76,1.76,0,0,0-.89-.23.94.94,0,0,0,.72-.39,1,1,0,0,0,.9-.22c0-.15-.47-.23-1.4-.23,1-.11,2.46-.26,4.48-.45-.86,0-2.15-.11-3.86-.22a29.81,29.81,0,0,0,4.14-.22q-1.45-.12-4.26-.12a8,8,0,0,0,1.52-.16q-3.36-.06-7.34-.28c.15-.19,1.19-.28,3.14-.28h3.47a2.39,2.39,0,0,0,1-.12,6.36,6.36,0,0,1-1.24-.28.51.51,0,0,0-.19-.39.46.46,0,0,1-.2-.33.92.92,0,0,1,.11-.34l4-.22s-1.44-.06-4.2-.06a2.49,2.49,0,0,0,1-.28.93.93,0,0,0,.73-.17,24.84,24.84,0,0,0-3.17-.28c-1.92-.11-3.07-.17-3.44-.17.18-.22,1.25-.37,3.19-.44s3-.13,3.08-.17a1.79,1.79,0,0,0-.78-.28,3.09,3.09,0,0,0,1-.23c-.22,0-.59-.11-1.12-.22q.34.06,1-.45a.64.64,0,0,0-.51-.28A4.84,4.84,0,0,0,98.61,14a6.94,6.94,0,0,0-1.28-.11c.52,0,1.3-.11,2.35-.23-2.24,0-4.78,0-7.62-.05L110,13.27l-.39,14.28a8.12,8.12,0,0,0,2.07.06,5.79,5.79,0,0,0-1.73-.11,2.29,2.29,0,0,0,.61-.17.53.53,0,0,0-.25-.11,2,2,0,0,1-.31-.12,2.26,2.26,0,0,0,.9-.11,1.08,1.08,0,0,0-.62-.11,10.25,10.25,0,0,0,1.57-.11l-1.51-.34a12.27,12.27,0,0,0,1.9-.11q-.56-.11-1.68-.39a7,7,0,0,0,1.79-.11,6.75,6.75,0,0,0-1.73-.06l.11-.67q1.52-.06,4.65-.39c-.41,0-1.07-.09-2-.14l-2-.14a2.23,2.23,0,0,0,1.06-.12,5.61,5.61,0,0,0-1.23-.11c1.64,0,3,0,3.92-.11-.11,0-.93-.07-2.46-.11a4.19,4.19,0,0,1-1.4-.28l1.17-.23,1.12-.33a7.34,7.34,0,0,0-2-.11l3.41-.23a14,14,0,0,0-2.63-.11,1.1,1.1,0,0,0,.62-.11,5.09,5.09,0,0,0-1.24-.11,22.54,22.54,0,0,0,2.8-.28,5.27,5.27,0,0,0-1.56-.12c-.56,0-.86-.09-.9-.28l5.21-.28a37.5,37.5,0,0,1-4.93-.56,6.85,6.85,0,0,0,1.46-.22,4,4,0,0,0-1.12-.17,3.19,3.19,0,0,0,1.17-.11,5.11,5.11,0,0,0-1.4-.22,6.19,6.19,0,0,1,1-.51c0-.07-.22-.09-.56-.05a3.43,3.43,0,0,0,1.07-.17,8.3,8.3,0,0,1-.84-.23,6.72,6.72,0,0,0,1.51-.11,4.89,4.89,0,0,1-1.4-.33,9.77,9.77,0,0,0,2.24-.23q-.78-.11-2.13-.33a15.76,15.76,0,0,1,2.41-.4c-.22,0-.6-.07-1.12-.11s-.91-.07-1.18-.11a6.05,6.05,0,0,0,1.63-.11c-.3,0-.77-.11-1.4-.23.6,0,1.49-.11,2.69-.22l-1.68-.17a1.46,1.46,0,0,1-.84-.22c.3-.08.86-.19,1.68-.34-.26,0-.64-.11-1.12-.22a4.44,4.44,0,0,0,1.51-.23,2.72,2.72,0,0,1-1.51-.44c.33-.12.74-.25,1.23-.4a.93.93,0,0,0-.56-.11,1.9,1.9,0,0,0,.73-.11,4.94,4.94,0,0,0-1.18-.11,24.89,24.89,0,0,0,2.69-.11c-.52-.08-1.22-.21-2.07-.4a4.08,4.08,0,0,0,1.34-.11,1.51,1.51,0,0,0-.84-.33h-.9a4.93,4.93,0,0,0,1.35-.15c-.08-.14-.39-.26-1-.36h13Z"/><path class="cls-1" d="M150.41,36.29s-.28.86-.72,2.46c-.19.34-.44.87-.76,1.6a5.4,5.4,0,0,1-2.3,2.18A11.15,11.15,0,0,1,143.25,44a22.1,22.1,0,0,1-3.81.62c-.82,0-2.54-.15-5.15-.45a2.63,2.63,0,0,0,.61-.11,11.38,11.38,0,0,0-2.07-.28,2.34,2.34,0,0,0,1-.12,20.88,20.88,0,0,0-3.53-.28,17,17,0,0,0,3.19.06,22.31,22.31,0,0,0-3.81-.28l2.69.11c-1-.11-2.13-.26-3.47-.45.3-.07.73-.14,1.29-.22a23.8,23.8,0,0,0-2.8-.56c.07,0,.75-.15,2-.34a13.34,13.34,0,0,0-2.4-.16,7.32,7.32,0,0,0,1.62-.17,6.29,6.29,0,0,0-1.68-.17,8.42,8.42,0,0,0,1.62-.17,12.88,12.88,0,0,0-1.9-.11,5.45,5.45,0,0,0,1.29-.17.78.78,0,0,0-.28-.05,5.4,5.4,0,0,0,1.12-.12,14.59,14.59,0,0,0-2.07-.11,13.2,13.2,0,0,0,2.29-.17,25.15,25.15,0,0,0-2.57-.28.29.29,0,0,0,.22.06,7.2,7.2,0,0,0,1.46-.17l-.9-.14c-.41,0-.71-.1-.9-.14a6.17,6.17,0,0,0,1.46-.05,5.85,5.85,0,0,0-1.46-.12.69.69,0,0,0,.4-.11.88.88,0,0,0-.45-.11,5,5,0,0,0,1.29-.17,2,2,0,0,0-.79-.11,21.56,21.56,0,0,0,2.41-.11l-2.69-.06c.11-.15,0-.22-.22-.22a5,5,0,0,0,1.29-.17c-.3,0-.77-.13-1.4-.28h2c.52-.07,1.33-.17,2.41-.28a14.67,14.67,0,0,0-2.35-.06,2.22,2.22,0,0,0,1.12-.33,17.24,17.24,0,0,0,1.79-.17l-2.63-.11.17-.11c-.23-.23-.36-.3-.4-.23a1.73,1.73,0,0,1,.62-.33s-.07-.08-.2-.12a1.12,1.12,0,0,1-.3-.11,2.12,2.12,0,0,0,.89,0,2.13,2.13,0,0,0-.78-.23l1.68-.14c.74-.05,1.3-.1,1.68-.14-.67,0-1.68-.05-3-.17a5.8,5.8,0,0,0,.9-.28,2.94,2.94,0,0,0-1-.11,3.32,3.32,0,0,0,.79-.22.67.67,0,0,0-.68-.45,1.3,1.3,0,0,0,.56-.11c0-.11-.09-.17-.28-.17s0-.09.17-.17a.55.55,0,0,0-.39-.11c.71,0,1.75,0,3.14-.11a27.11,27.11,0,0,0-2.8-.23,1.1,1.1,0,0,0,.72-.11,1.84,1.84,0,0,0-.56-.11H138l-.89,4.2a6,6,0,0,0-.06.78c0,.9.62,1.35,1.85,1.35.93,0,2-.06,3.3-.17a1.54,1.54,0,0,0-1-.22,5.58,5.58,0,0,1-1.12,0q.67,0,2.13-.12a6.92,6.92,0,0,0-1.51-.11c.44,0,1.15,0,2.12-.11a15,15,0,0,1-1.51-.11,1,1,0,0,1-.67-.34q.11,0,2.07-.33l-2-.45a3.77,3.77,0,0,0,1.28-.11.87.87,0,0,0-.39-.06c.34,0,.86-.13,1.57-.28l-2-.34a1,1,0,0,0,.56-.11c-.18-.07-.44-.17-.78-.28a2,2,0,0,0,.2-.25c.09-.13.12-.21.08-.25a1.38,1.38,0,0,0,.73-.11.85.85,0,0,0-.56-.12h2l.33-.16c-.26,0-.67-.09-1.23-.14l-1.23-.14,3.7-.23c-.71-.07-1.55-.11-2.52-.11a1.08,1.08,0,0,0,.72-.11,3.11,3.11,0,0,0-1.62-.23,3,3,0,0,0,1.12-.11c0-.07-.21-.11-.5-.11a3.26,3.26,0,0,0,.67-.06c-.56-.14-1.18-.28-1.85-.39a11.82,11.82,0,0,0,2.58-.22,21.25,21.25,0,0,0-2.64-.11,5.32,5.32,0,0,0,1.52-.12c-.34,0-.94,0-1.8,0a6.23,6.23,0,0,0,1.35-.17c0-.15-.39-.22-1.07-.22a1.25,1.25,0,0,0,.4-.06,2.73,2.73,0,0,0-1.12-.11,1.77,1.77,0,0,0,.61-.17,2.07,2.07,0,0,0-.78-.22,2,2,0,0,0,.84-.06c-.49-.07-1.25-.2-2.3-.39a5.55,5.55,0,0,0,1.57-.11,8.62,8.62,0,0,0-1.68-.12c.63,0,1.53,0,2.69-.11L138,31.47a2,2,0,0,0,.62-.17.93.93,0,0,0-.56-.11,11.09,11.09,0,0,0,1.45-.22c-1.49-.08-3.36-.21-5.6-.39a10.88,10.88,0,0,0,1.52.05,5.41,5.41,0,0,0,1.62-.11q-.39-.39-3.42-.39h3.81c-1.46-.11-3.13-.26-5-.45l.17-.11a2.38,2.38,0,0,1-.62-.23c.34,0,1.29-.08,2.86-.14s2.52-.1,2.86-.14a55.93,55.93,0,0,0-5.77-.16.53.53,0,0,0,.28-.12,1.92,1.92,0,0,0-.76-.11c-.35,0-.68,0-1-.05l1.07-.06a2.07,2.07,0,0,0-.79-.11,1,1,0,0,0,.67-.11l.06-.12a.68.68,0,0,0-.45-.11q6.89,0,7.73-.05-.17-.12-8.9-.12a6,6,0,0,1,1.12-.5,3.19,3.19,0,0,0-1.24-.11.83.83,0,0,0,.45-.11,2.49,2.49,0,0,0-.84-.12q2.23,0,3.36-.12L129,26.6h8.23q-.12-.11-6.16-.11a4.62,4.62,0,0,0-.67-.11c.59-.08.89-.15.89-.23a.59.59,0,0,0,0-.22c.44,0,1.15-.11,2.12-.23a6.7,6.7,0,0,0-1.62-.22,2.12,2.12,0,0,0,.95-.11,9.37,9.37,0,0,0-1.34-.06,10.27,10.27,0,0,0,1.17-.22,4.36,4.36,0,0,0-1.28-.28,2.21,2.21,0,0,0,.95-.17,2,2,0,0,0-.95-.17,1.49,1.49,0,0,0,.72,0c-.22-.08-.54-.17-1-.28.82,0,2.05-.12,3.7-.23-1-.07-2.22-.09-3.64-.05a2.29,2.29,0,0,0,.61-.17,1.25,1.25,0,0,0-.39-.11,1.51,1.51,0,0,1-.39-.12l4.93-.11c-.15,0-1-.07-2.38-.11s-2.21-.07-2.33-.11a11.29,11.29,0,0,0,2.36-.11,5,5,0,0,0-1.24-.12,1.12,1.12,0,0,0,.45,0,4.54,4.54,0,0,0-1.45-.17c1.19,0,2.12,0,2.8-.11l-2.75-.39a.6.6,0,0,0,.23-.26,1.86,1.86,0,0,1,.16-.25,1.1,1.1,0,0,0-.39-.05c.37-.08,1-.17,1.74-.28a4.78,4.78,0,0,0-1.51-.06l.11-.62a6,6,0,0,0,2.07,0c-.41,0-1-.11-1.9-.22a10.15,10.15,0,0,0-1.29.11c-.19,0,0-.12.5-.25s.73-.23.62-.31c.37,0,.48-.07.33-.22l-.72.11a2.54,2.54,0,0,0-.84-.11.65.65,0,0,0,.44-.11c-.15,0,0-.12.56-.23s.69-.18.51-.22c.22,0,.18,0-.11.05H131c-.26,0-.3,0-.11-.05a5.14,5.14,0,0,0-1.35-.23,1.13,1.13,0,0,0,.73-.11,3,3,0,0,0-.39-.11,1.61,1.61,0,0,1-.39-.11,3.16,3.16,0,0,0,1-.11.7.7,0,0,0-.5-.12.64.64,0,0,0,.39-.11,2.54,2.54,0,0,0-.84-.11c.41,0,1-.07,1.82-.11l1.77-.11c-.71-.08-1.76-.23-3.14-.45a3.68,3.68,0,0,0,1.29-.11,4.94,4.94,0,0,0-1.79-.17l.95.11a5.74,5.74,0,0,0,.78-.5c1.53-.08,3.44-.19,5.71-.34.56.08-1.42.11-5.93.11l1.79-.33c-.34,0-.8-.12-1.4-.23q2.35-.16,5.71-.45c-.11,0-1.7,0-4.76.17.3-.39,1.76-.65,4.37-.76.07-.08,0-.2-.11-.36.3-.07,1.7-.26,4.2-.56a9,9,0,0,0-1.57-.11,1.77,1.77,0,0,0,.9-.11.88.88,0,0,0-.56-.11,18.89,18.89,0,0,0,2.4-.12,1.63,1.63,0,0,0-.67-.11h5.38a9.36,9.36,0,0,1,1.17.28,14.05,14.05,0,0,0,1.4.34q3.81.74,3.81,4.73a6.45,6.45,0,0,1-.17,1.41l-.56,2.76h-8.68c0-.18,0-.28-.11-.28a9.87,9.87,0,0,0,2.13-.11,10.64,10.64,0,0,0-1.79-.11,3.45,3.45,0,0,0,1.17-.11c0-.19-.2-.32-.61-.4a2.83,2.83,0,0,1-.95-.22c.33,0,.85-.13,1.56-.28a6,6,0,0,0-1.51-.06,2.76,2.76,0,0,1,.79-.39.7.7,0,0,0-.45-.11,6.3,6.3,0,0,0,1.34-.11,2.3,2.3,0,0,0-.84-.11,13.47,13.47,0,0,0,2.13-.12c-.49,0-1.31-.05-2.46-.05a1.85,1.85,0,0,0,.56-.17,2.07,2.07,0,0,0-.79-.11c.26,0,.69,0,1.29-.11a5.5,5.5,0,0,1-1.06-.34c.89,0,2.25-.11,4.08-.22,0,0-1.38-.06-4-.06a1.41,1.41,0,0,1,.67-.34l5.88-.11h-6.44c.3-.07.73-.17,1.29-.28a9.8,9.8,0,0,0-2.63-.39c-1.27,0-2.07.8-2.41,2.41a7.31,7.31,0,0,0-.17,1.23c0,.9.88,1.83,2.63,2.8,1.35.75,2.69,1.48,4,2.18a8.74,8.74,0,0,1,3.19,3.2Q151.26,32.31,150.41,36.29Z"/></g></g></svg>
