<svg xmlns="http://www.w3.org/2000/svg" viewBox="0 0 498.77 137.51"><defs><style>.cls-2{fill:#fff}.cls-3{fill:#006cbf}.cls-4{fill:#05c2db}.cls-5{fill:#333;opacity:.15}</style></defs><g id="Layer_2" data-name="Layer 2"><g id="LOGOS"><path d="M105.88 50.56c6.2 10.24 5.5 29-2.21 40.08a62.37 62.37 0 00.22-7.64c0-17.71-15.21-29.06-34.77-32.67C71.63 42.18 73 26 73 19.58a15.32 15.32 0 0115.3-15.3c8.51 0 15.07 5.05 20.51 15.86-13.46 5.95-10.02 18.7-2.93 30.42z" fill="#50f3ff"/><circle class="cls-2" cx="88.74" cy="18.43" r="8.64"/><path class="cls-3" d="M91.4 18.78a2.92 2.92 0 01-1.4-5.46 4.93 4.93 0 00-1.23-.16A5.27 5.27 0 1094 18.43a5.68 5.68 0 00-.11-1.09 2.9 2.9 0 01-2.49 1.44z"/><path class="cls-3" d="M85.57 114.56a2.5 2.5 0 01-1.42-4.56c31.33-21.73 26.71-49.19 19-62-4.62-7.71-6-14.49-4.11-19.59 1.44-3.78 4.59-6.54 9.36-8.21C103.12 9.84 96.78 5 88.52 5a14.9 14.9 0 00-14.88 14.88c0 10.55-.76 29-5.85 34.1a2.5 2.5 0 01-3.54-3.53c2.59-2.59 4.39-15.16 4.39-30.57A19.9 19.9 0 0188.52 0c10.34 0 18.39 6 24.61 18.42a4.73 4.73 0 01.13 3.93 4.21 4.21 0 01-2.6 2.39c-3.7 1.17-6 3-6.91 5.45-1.35 3.57 0 9 3.72 15.25a47.62 47.62 0 015.82 30.38c-2.11 14.59-11.2 27.83-26.29 38.3a2.51 2.51 0 01-1.43.44z"/><path class="cls-2" d="M67.64 117.4A34.33 34.33 0 00102 83.08C102 66 90.74 52.49 69.46 52.66c-33.76 0-67 41.37-67 77.75a75.07 75.07 0 0024.35-13z"/><path class="cls-4" d="M79 77H58.5a2.5 2.5 0 110-5H79a2.5 2.5 0 010 5zM72.23 89.59h-27a2.5 2.5 0 010-5h27a2.5 2.5 0 010 5zM61.23 102.16h-34a2.5 2.5 0 010-5h34a2.5 2.5 0 010 5z"/><path class="cls-3" d="M65.18 137.51a2.24 2.24 0 01-1.46-.54l-7.23-6.14a5.07 5.07 0 01-.42-7.42l6.93-7.53a2.25 2.25 0 113.32 3l-6.91 7.56a.61.61 0 00-.2.47.63.63 0 00.25.45l7.22 6.15a2.25 2.25 0 01-1.45 4z"/><path class="cls-3" d="M80.35 137.51H54.62a2.25 2.25 0 010-4.5h25.73a2.25 2.25 0 010 4.5z"/><path class="cls-3" d="M65.18 137.51a2.24 2.24 0 01-1.46-.54l-7.23-6.14a5.07 5.07 0 01-.42-7.42l6.68-7A2.25 2.25 0 0166 119.5l-6.68 7a.59.59 0 00-.17.44.63.63 0 00.25.45l7.22 6.15a2.25 2.25 0 01-1.45 4z"/><path class="cls-3" d="M80.35 137.51H54.62a2.25 2.25 0 010-4.5h25.73a2.25 2.25 0 010 4.5zM2.5 132.91a2.5 2.5 0 01-2.5-2.5c0-18 8-38.18 21.41-54.12 14-16.6 31.47-26.13 48.05-26.13 10.71-.09 19.62 3.15 25.87 9.35 5.89 5.85 9.13 14.21 9.13 23.57a36.87 36.87 0 01-36.82 36.82H27.7a77.54 77.54 0 01-24.5 12.91 2.42 2.42 0 01-.7.1zm67-77.75c-15.13 0-31.25 8.84-44.26 24.34C13.43 93.54 6.06 111 5.11 126.92a75.49 75.49 0 0020.19-11.49 2.51 2.51 0 011.55-.53h40.79a31.86 31.86 0 0031.82-31.82c0-8.13-2.65-15-7.65-20-5.22-5.17-12.8-7.9-22-7.9z"/><path class="cls-5" d="M27.67 114.9h40a31.86 31.86 0 0031.79-31.82c0-.94 0-1.86-.11-2.77-14.63 38.5-68.16 34.14-71.68 34.59zM103.18 48c-.34-.57-.66-1.13-1-1.69A79.8 79.8 0 01102.1 70a36.13 36.13 0 012.36 13.1 37.74 37.74 0 01-.39 5.35 42 42 0 00-.89-40.45z"/><path class="cls-3" d="M213.42 40.28a5 5 0 00-4-1.73H184a2.74 2.74 0 00-1.07 0h-24.34a6.69 6.69 0 00-6.52 5.69 5.17 5.17 0 005.19 6h18.84l-7.91 57.36a5.26 5.26 0 001.21 4.3 5.19 5.19 0 004 1.72 6.43 6.43 0 004.28-1.64 6.55 6.55 0 002.25-4.1l7.95-57.64h20.16a6.2 6.2 0 004.28-1.68 6.33 6.33 0 002.25-4.06 5.14 5.14 0 00-1.15-4.22zM278.12 54.82a5.12 5.12 0 00-4-1.72 6.29 6.29 0 00-4.29 1.64 6.52 6.52 0 00-2.25 4.1l-3.36 24.39a21 21 0 01-7.3 13.16 20.5 20.5 0 01-13.87 5.43 15.17 15.17 0 01-12.21-5.33 15.56 15.56 0 01-3.59-13l3.36-24.39a5.21 5.21 0 00-1.19-4.29 5 5 0 00-4-1.73 6.7 6.7 0 00-6.53 5.74l-3.37 24.39c-1.14 8.32.85 15.54 5.93 21.45s11.93 9 20.25 9a33.29 33.29 0 0022.52-8.86A34 34 0 00276 83.51l3.37-24.39a5.22 5.22 0 00-1.25-4.3zM333.23 57.12a23.45 23.45 0 00-13.72-4 29.71 29.71 0 00-20 7.83 30.29 30.29 0 00-10.43 19l-3.82 27.72a5.11 5.11 0 001.19 4.23 5.06 5.06 0 004 1.79 6.42 6.42 0 004.35-1.7 6.6 6.6 0 002.18-4l3.82-27.72a17.18 17.18 0 016-10.81 16.81 16.81 0 0111.4-4.51 13 13 0 017.48 2.05 6.05 6.05 0 007.41-.73 6.6 6.6 0 002.29-5.24 5 5 0 00-2.15-3.91zM425.52 60.47c-4.21-4.89-9.84-7.37-16.73-7.37a27.54 27.54 0 00-18.57 7.27c-.59.52-1.16 1.06-1.72 1.62-.37-.52-.77-1-1.19-1.52-4.21-4.89-9.84-7.37-16.73-7.37A27.54 27.54 0 00352 60.37 28.08 28.08 0 00342.33 78l-4.09 29.67a5.14 5.14 0 001.2 4.23 5.05 5.05 0 004 1.79 6.27 6.27 0 004.3-1.69 6.49 6.49 0 002.24-4l4.09-29.67a15 15 0 015.25-9.43 14.65 14.65 0 019.93-3.94 10.78 10.78 0 018.75 3.75 11.07 11.07 0 012.49 9.29l-4.09 29.67a5.15 5.15 0 001.2 4.23 5 5 0 004 1.79 6.82 6.82 0 006.59-5.74l4.09-29.67a15 15 0 015.2-9.43 14.72 14.72 0 0110-3.94 10.73 10.73 0 018.68 3.85A11 11 0 01418.7 78l-4.09 29.67a5.14 5.14 0 001.18 4.21 5 5 0 004 1.81 6.37 6.37 0 004.3-1.69 6.49 6.49 0 002.24-4l4.09-29.67c.96-7-.69-12.97-4.9-17.86zM497.44 62a25.58 25.58 0 00-10-6.67 37 37 0 00-12.89-2.27 39 39 0 00-17.7 3.94c-6.7 3.42-10.55 8.3-11.44 14.5-1 7.34 1.73 12.47 8.16 15.26 3.56 1.51 9.05 2.32 16.34 2.38 6.21 0 10.31.44 12.2 1.22 1.07.42 2.46 1.36 2 4.6-.24 1.7-1.42 3.14-3.64 4.39a28.19 28.19 0 01-21.84 1.36 18.25 18.25 0 01-6.89-4.51 5.08 5.08 0 00-3.95-1.55 6.24 6.24 0 00-4.06 1.8 6 6 0 00-2 4 4.72 4.72 0 001.31 4 28 28 0 0010.5 6.92 36.07 36.07 0 0012.91 2.27h.31a37.49 37.49 0 0018.54-4.59c6-3.4 9.39-8 10.18-13.81 1.07-7.73-1.69-13-8.2-15.53-3.09-1.22-8.33-1.84-16-1.91-5.79 0-9.88-.56-12.16-1.56-1.9-.84-2.65-2.26-2.38-4.47.26-1.82 1.72-3.43 4.36-4.76a27 27 0 0112.18-2.51h.66a26.44 26.44 0 018.41 1.5 16.26 16.26 0 016.27 4.14 4.91 4.91 0 003.92 1.62 6.24 6.24 0 004.09-1.71 6.56 6.56 0 002.1-3.93 4.9 4.9 0 00-1.29-4.12z"/></g></g></svg>