<svg xmlns="http://www.w3.org/2000/svg" viewBox="0 0 113.77 137.51"><defs><style>.cls-1{fill:#50f3ff;}.cls-2{fill:#fff;}.cls-3{fill:#006cbf;}.cls-4{fill:#05c2db;}.cls-5{fill:#333;opacity:0.15;}</style></defs><title>Asset 3</title><g id="Layer_2" data-name="Layer 2"><g id="LOGOS"><path class="cls-1" d="M105.88,50.56c6.2,10.24,5.5,29-2.21,40.08a62.37,62.37,0,0,0,.22-7.64c0-17.71-15.21-29.06-34.77-32.67C71.63,42.18,73,26,73,19.58a15.32,15.32,0,0,1,15.3-15.3c8.51,0,15.07,5.05,20.51,15.86C95.35,26.09,98.79,38.84,105.88,50.56Z"/><circle class="cls-2" cx="88.74" cy="18.43" r="8.64"/><path class="cls-3" d="M91.4,18.78A2.92,2.92,0,0,1,90,13.32a4.93,4.93,0,0,0-1.23-.16A5.27,5.27,0,1,0,94,18.43a5.68,5.68,0,0,0-.11-1.09A2.9,2.9,0,0,1,91.4,18.78Z"/><path class="cls-3" d="M85.57,114.56A2.5,2.5,0,0,1,84.15,110c31.33-21.73,26.71-49.19,19-62-4.62-7.71-6-14.49-4.11-19.59,1.44-3.78,4.59-6.54,9.36-8.21C103.12,9.84,96.78,5,88.52,5A14.9,14.9,0,0,0,73.64,19.88c0,10.55-.76,29-5.85,34.1a2.5,2.5,0,0,1-3.54-3.53c2.59-2.59,4.39-15.16,4.39-30.57A19.9,19.9,0,0,1,88.52,0c10.34,0,18.39,6,24.61,18.42a4.73,4.73,0,0,1,.13,3.93,4.21,4.21,0,0,1-2.6,2.39c-3.7,1.17-6,3-6.91,5.45-1.35,3.57,0,9,3.72,15.25a47.62,47.62,0,0,1,5.82,30.38c-2.11,14.59-11.2,27.83-26.29,38.3A2.51,2.51,0,0,1,85.57,114.56Z"/><path class="cls-2" d="M67.64,117.4A34.33,34.33,0,0,0,102,83.08h0C102,66,90.74,52.49,69.46,52.66c-33.76,0-67,41.37-67,77.75a75.07,75.07,0,0,0,24.35-13Z"/><path class="cls-4" d="M79,77H58.5a2.5,2.5,0,1,1,0-5H79a2.5,2.5,0,0,1,0,5Z"/><path class="cls-4" d="M72.23,89.59h-27a2.5,2.5,0,0,1,0-5h27a2.5,2.5,0,0,1,0,5Z"/><path class="cls-4" d="M61.23,102.16h-34a2.5,2.5,0,0,1,0-5h34a2.5,2.5,0,0,1,0,5Z"/><path class="cls-3" d="M65.18,137.51a2.24,2.24,0,0,1-1.46-.54l-7.23-6.14a5.07,5.07,0,0,1-.42-7.42L63,115.88a2.25,2.25,0,1,1,3.32,3l-6.91,7.56a.61.61,0,0,0-.2.47.63.63,0,0,0,.25.45l7.22,6.15a2.25,2.25,0,0,1-1.45,4Z"/><path class="cls-3" d="M80.35,137.51H54.62a2.25,2.25,0,0,1,0-4.5H80.35a2.25,2.25,0,0,1,0,4.5Z"/><path class="cls-3" d="M65.18,137.51a2.24,2.24,0,0,1-1.46-.54l-7.23-6.14a5.07,5.07,0,0,1-.42-7.42l6.68-7A2.25,2.25,0,0,1,66,119.5l-6.68,7a.59.59,0,0,0-.17.44.63.63,0,0,0,.25.45l7.22,6.15a2.25,2.25,0,0,1-1.45,4Z"/><path class="cls-3" d="M80.35,137.51H54.62a2.25,2.25,0,0,1,0-4.5H80.35a2.25,2.25,0,0,1,0,4.5Z"/><path class="cls-3" d="M2.5,132.91a2.5,2.5,0,0,1-2.5-2.5c0-18,8-38.18,21.41-54.12,14-16.6,31.47-26.13,48.05-26.13h0c10.71-.09,19.62,3.15,25.87,9.35,5.89,5.85,9.13,14.21,9.13,23.57A36.87,36.87,0,0,1,67.64,119.9H27.7A77.54,77.54,0,0,1,3.2,132.81,2.42,2.42,0,0,1,2.5,132.91Zm67-77.75C54.37,55.16,38.25,64,25.24,79.5,13.43,93.54,6.06,111,5.11,126.92A75.49,75.49,0,0,0,25.3,115.43a2.51,2.51,0,0,1,1.55-.53H67.64A31.86,31.86,0,0,0,99.46,83.08c0-8.13-2.65-15-7.65-20-5.22-5.17-12.8-7.9-22-7.9Z"/><path class="cls-5" d="M27.67,114.9h40A31.86,31.86,0,0,0,99.46,83.08c0-.94,0-1.86-.11-2.77C84.72,118.81,31.19,114.45,27.67,114.9Z"/><path class="cls-5" d="M103.18,48c-.34-.57-.66-1.13-1-1.69A79.8,79.8,0,0,1,102.1,70a36.13,36.13,0,0,1,2.36,13.1,37.74,37.74,0,0,1-.39,5.35A42,42,0,0,0,103.18,48Z"/></g></g></svg>